#!OML:ASF F:\VICON\USERDATA\INSTALL\rory3\rory3.ASF
:FULLY-SPECIFIED
:DEGREES
2251
root 0.303796 17.6684 3.1166 1.55306 22.404 -9.74423
lowerback 8.01112 3.02847 -1.42817
upperback -0.0559349 3.70159 -4.72342
thorax -4.32644 1.82455 -4.55123
lowerneck -28.1655 -10.7132 -12.9402
upperneck 12.8983 -13.1861 16.5193
head 10.8071 -4.88346 5.68835
rclavicle 1.20861e-013 -5.725e-014
rhumerus 47.1237 -2.27609 -0.0615066
rradius 59.7042
rwrist 42.0584
rhand -64.5439 -1.43236
rfingers 7.12502
rthumb -36.466 -27.633
lclavicle 1.20861e-013 -5.725e-014
lhumerus -33.7434 3.04918 66.6863
lradius 59.8823
lwrist -5.51274
lhand -21.5701 19.99
lfingers 7.12502
lthumb 4.82391 49.9151
rfemur -3.07563 -1.51856 17.9183
rtibia 22.7228
rfoot -17.9636 -15.9935
rtoes -5.28251
lfemur -21.3012 -5.81094 -3.23731
ltibia 35.2681
lfoot -17.2704 -4.65913
ltoes -21.4238
2252
root 0.318464 17.6617 3.11359 1.44806 22.3003 -9.6443
lowerback 7.9476 3.03907 -1.62426
upperback 0.0328191 3.7042 -4.73067
thorax -4.20997 1.83167 -4.44014
lowerneck -28.2488 -10.7 -12.9226
upperneck 12.9433 -13.1534 16.4476
head 10.8233 -4.87055 5.66536
rclavicle 1.43125e-014 3.18055e-015
rhumerus 47.583 0.0548155 2.01135
rradius 59.9815
rwrist 43.3516
rhand -64.8313 2.14207
rfingers 7.12502
rthumb -36.738 -23.9897
lclavicle 1.43125e-014 3.18055e-015
lhumerus -33.6118 2.93171 66.7653
lradius 59.9987
lwrist -5.55482
lhand -21.276 19.5741
lfingers 7.12502
lthumb 5.10784 49.4926
rfemur -3.04017 -1.70748 17.7003
rtibia 23.0125
rfoot -17.8604 -15.6129
rtoes -6.19834
lfemur -21.1767 -5.91555 -3.41259
ltibia 35.4625
lfoot -17.3449 -4.55391
ltoes -21.1075
2253
root 0.33248 17.6447 3.10631 1.37146 22.2205 -9.54459
lowerback 7.87576 3.04185 -1.81254
upperback 0.112465 3.69776 -4.73294
thorax -4.0988 1.83372 -4.32723
lowerneck -28.2967 -10.6428 -12.9144
upperneck 13.03 -13.0593 16.3484
head 10.8368 -4.83457 5.6481
rclavicle -6.24184e-014 3.81667e-014
rhumerus 47.8817 2.27578 4.20398
rradius 60.6446
rwrist 44.5674
rhand -64.8502 3.82309
rfingers 7.12502
rthumb -36.7559 -22.3041
lclavicle -6.24184e-014 3.81667e-014
lhumerus -33.3634 2.93806 66.8759
lradius 59.9708
lwrist -5.63319
lhand -21.1419 19.4942
lfingers 7.12502
lthumb 5.23733 49.4095
rfemur -3.0141 -2.0013 17.4593
rtibia 23.3327
rfoot -17.9422 -14.8566
rtoes -5.23998
lfemur -21.0902 -5.97568 -3.58877
ltibia 35.5862
lfoot -17.3998 -4.45847
ltoes -20.9477
2254
root 0.347232 17.642 3.10341 1.19135 22.1393 -9.55375
lowerback 7.82488 3.0778 -1.88999
upperback 0.193873 3.74454 -4.75162
thorax -3.98636 1.85979 -4.30091
lowerneck -28.3552 -10.5387 -12.7087
upperneck 13.2379 -12.9696 16.1448
head 10.8739 -4.79828 5.56067
rclavicle 6.20208e-014 -3.18055e-015
rhumerus 47.8146 4.4536 6.79447
rradius 61.7836
rwrist 45.3384
rhand -64.7038 3.44192
rfingers 7.12502
rthumb -36.6174 -22.7205
lclavicle 6.20208e-014 -3.18055e-015
lhumerus -33.0629 2.88328 66.9416
lradius 59.9102
lwrist -5.78801
lhand -21.2713 19.9202
lfingers 7.12502
lthumb 5.11242 49.8386
rfemur -3.03127 -2.06311 17.3639
rtibia 23.6629
rfoot -17.6792 -14.7593
rtoes -6.03218
lfemur -20.8842 -6.00352 -3.66139
ltibia 35.6404
lfoot -17.4838 -4.37173
ltoes -20.9277
2255
root 0.361507 17.6562 3.10235 0.988417 22.1122 -9.57421
lowerback 7.84213 3.12237 -1.97065
upperback 0.276151 3.80076 -4.72491
thorax -3.91405 1.89027 -4.23084
lowerneck -28.3768 -10.5309 -12.7645
upperneck 13.4183 -12.9679 16.1686
head 10.9496 -4.7927 5.58274
rclavicle 1.20861e-013 -6.36111e-015
rhumerus 47.938 6.53012 9.44768
rradius 62.8234
rwrist 46.4317
rhand -64.3329 1.76278
rfingers 7.12502
rthumb -36.2662 -24.4879
lclavicle 1.20861e-013 -6.36111e-015
lhumerus -32.8355 2.88277 67.0754
lradius 59.9102
lwrist -6.01362
lhand -21.3337 19.8388
lfingers 7.12502
lthumb 5.05215 49.7585
rfemur -3.1026 -2.04058 17.294
rtibia 24.0208
rfoot -17.1806 -15.1335
rtoes -7.94793
lfemur -20.6342 -6.016 -3.73308
ltibia 35.6506
lfoot -17.4729 -4.32581
ltoes -21.0325
2256
root 0.375945 17.661 3.10015 0.878874 22.1151 -9.62846
lowerback 7.79673 3.14989 -1.96912
upperback 0.371583 3.84556 -4.69884
thorax -3.78831 1.91418 -4.20111
lowerneck -28.4185 -10.6275 -12.8854
upperneck 13.4515 -13.074 16.2432
head 11.0012 -4.83591 5.60789
rclavicle -7.55382e-014 4.45278e-014
rhumerus 48.3393 8.41572 11.7546
rradius 63.52
rwrist 48.0422
rhand -64.0821 1.72574
rfingers 7.12502
rthumb -36.0287 -24.5837
lclavicle -7.55382e-014 4.45278e-014
lhumerus -32.4759 2.93563 67.2639
lradius 59.8803
lwrist -6.28249
lhand -21.2731 19.4542
lfingers 7.12502
lthumb 5.1107 49.3726
rfemur -3.22432 -2.1214 17.2538
rtibia 24.3965
rfoot -16.9266 -15.1418
rtoes -8.59154
lfemur -20.5502 -6.02272 -3.75851
ltibia 35.6605
lfoot -17.4423 -4.32162
ltoes -20.8871
2257
root 0.391565 17.6568 3.09442 0.833874 22.0495 -9.6185
lowerback 7.75524 3.22078 -2.0105
upperback 0.405328 3.93932 -4.72165
thorax -3.72593 1.96204 -4.20712
lowerneck -28.3659 -10.6987 -12.8827
upperneck 13.4387 -13.1818 16.2493
head 11.0053 -4.8866 5.58658
rclavicle -6.44062e-014 -1.90833e-014
rhumerus 48.7181 10.2467 13.891
rradius 64.2239
rwrist 49.6739
rhand -64.1484 2.83925
rfingers 7.12502
rthumb -36.0915 -23.4547
lclavicle -6.44062e-014 -1.90833e-014
lhumerus -32.1884 2.70996 67.4235
lradius 59.9578
lwrist -6.22986
lhand -21.374 19.5672
lfingers 7.12502
lthumb 5.01322 49.4879
rfemur -3.37801 -2.26547 17.107
rtibia 24.7542
rfoot -16.8154 -14.7649
rtoes -7.91398
lfemur -20.5121 -5.9629 -3.84891
ltibia 35.711
lfoot -17.4239 -4.29044
ltoes -20.5876
